<svg width="30" height="30" viewBox="0 0 30 30" fill="none" xmlns="http://www.w3.org/2000/svg">
<path d="M3.46124 5.47813C2.89874 6.04063 2.82374 21.7156 3.38624 21.3406C3.61124 21.1906 3.76124 18.7906 3.76124 15.3406C3.76124 11.1031 3.87374 9.52814 4.24874 9.41564C4.58624 9.26563 4.58624 9.15313 4.21124 8.85313C3.91124 8.66563 3.76124 7.99063 3.83624 7.24063L3.94874 5.96563H15.3862H26.8237L26.9362 7.24063C27.0112 7.99063 26.8612 8.66563 26.5612 8.85313C26.1862 9.15313 26.1862 9.26563 26.5612 9.41564C26.8987 9.52814 27.0112 11.4406 27.0112 17.0656V24.5281H17.1112C10.8862 24.5281 7.09874 24.6781 6.94874 24.9031C6.79874 25.1656 10.3237 25.2781 17.2237 25.2781H27.7612V15.6031C27.7612 8.59063 27.6487 5.81563 27.3112 5.47813C26.6737 4.84063 4.09874 4.84063 3.46124 5.47813Z" fill="#8F8F8F"/>
<path d="M4.66125 6.94063C4.28625 7.57813 5.14875 8.29063 5.67375 7.76563C6.12375 7.31563 5.82375 6.52813 5.26125 6.52813C5.07375 6.52813 4.81125 6.71563 4.66125 6.94063Z" fill="#8F8F8F"/>
<path d="M6.91125 6.94063C6.53625 7.57813 7.39875 8.29063 7.92375 7.76563C8.37375 7.31563 8.07375 6.52813 7.51125 6.52813C7.32375 6.52813 7.06125 6.71563 6.91125 6.94063Z" fill="#8F8F8F"/>
<path d="M9.16125 6.94063C8.78625 7.57813 9.64875 8.29063 10.1737 7.76563C10.6237 7.31563 10.3237 6.52813 9.76125 6.52813C9.57375 6.52813 9.31125 6.71563 9.16125 6.94063Z" fill="#8F8F8F"/>
<path d="M5.26125 9.15314C5.26125 9.34064 5.44875 9.52814 5.63625 9.52814C5.86125 9.52814 6.01125 9.34064 6.01125 9.15314C6.01125 8.92814 5.86125 8.77814 5.63625 8.77814C5.44875 8.77814 5.26125 8.92814 5.26125 9.15314Z" fill="#8F8F8F"/>
<path d="M6.76125 9.15314C6.76125 9.34064 6.94875 9.52814 7.13625 9.52814C7.36125 9.52814 7.51125 9.34064 7.51125 9.15314C7.51125 8.92814 7.36125 8.77814 7.13625 8.77814C6.94875 8.77814 6.76125 8.92814 6.76125 9.15314Z" fill="#8F8F8F"/>
<path d="M8.26125 9.15314C8.26125 9.34064 8.44875 9.52814 8.63625 9.52814C8.86125 9.52814 9.01125 9.34064 9.01125 9.15314C9.01125 8.92814 8.86125 8.77814 8.63625 8.77814C8.44875 8.77814 8.26125 8.92814 8.26125 9.15314Z" fill="#8F8F8F"/>
<path d="M9.76125 9.15314C9.76125 9.34064 9.94875 9.52814 10.1362 9.52814C10.3612 9.52814 10.5112 9.34064 10.5112 9.15314C10.5112 8.92814 10.3612 8.77814 10.1362 8.77814C9.94875 8.77814 9.76125 8.92814 9.76125 9.15314Z" fill="#8F8F8F"/>
<path d="M11.2612 9.15314C11.2612 9.34064 11.4487 9.52814 11.6362 9.52814C11.8612 9.52814 12.0112 9.34064 12.0112 9.15314C12.0112 8.92814 11.8612 8.77814 11.6362 8.77814C11.4487 8.77814 11.2612 8.92814 11.2612 9.15314Z" fill="#8F8F8F"/>
<path d="M12.7612 9.15314C12.7612 9.34064 12.9487 9.52814 13.1362 9.52814C13.3612 9.52814 13.5112 9.34064 13.5112 9.15314C13.5112 8.92814 13.3612 8.77814 13.1362 8.77814C12.9487 8.77814 12.7612 8.92814 12.7612 9.15314Z" fill="#8F8F8F"/>
<path d="M14.2612 9.15314C14.2612 9.34064 14.4487 9.52814 14.6362 9.52814C14.8612 9.52814 15.0112 9.34064 15.0112 9.15314C15.0112 8.92814 14.8612 8.77814 14.6362 8.77814C14.4487 8.77814 14.2612 8.92814 14.2612 9.15314Z" fill="#8F8F8F"/>
<path d="M15.7612 9.15314C15.7612 9.34064 15.9487 9.52814 16.1362 9.52814C16.3612 9.52814 16.5112 9.34064 16.5112 9.15314C16.5112 8.92814 16.3612 8.77814 16.1362 8.77814C15.9487 8.77814 15.7612 8.92814 15.7612 9.15314Z" fill="#8F8F8F"/>
<path d="M17.2612 9.15314C17.2612 9.34064 17.4487 9.52814 17.6362 9.52814C17.8612 9.52814 18.0112 9.34064 18.0112 9.15314C18.0112 8.92814 17.8612 8.77814 17.6362 8.77814C17.4487 8.77814 17.2612 8.92814 17.2612 9.15314Z" fill="#8F8F8F"/>
<path d="M18.7612 9.15314C18.7612 9.34064 18.9487 9.52814 19.1362 9.52814C19.3612 9.52814 19.5112 9.34064 19.5112 9.15314C19.5112 8.92814 19.3612 8.77814 19.1362 8.77814C18.9487 8.77814 18.7612 8.92814 18.7612 9.15314Z" fill="#8F8F8F"/>
<path d="M20.2612 9.15314C20.2612 9.34064 20.4487 9.52814 20.6362 9.52814C20.8612 9.52814 21.0112 9.34064 21.0112 9.15314C21.0112 8.92814 20.8612 8.77814 20.6362 8.77814C20.4487 8.77814 20.2612 8.92814 20.2612 9.15314Z" fill="#8F8F8F"/>
<path d="M21.7612 9.15314C21.7612 9.34064 21.9487 9.52814 22.1362 9.52814C22.3612 9.52814 22.5112 9.34064 22.5112 9.15314C22.5112 8.92814 22.3612 8.77814 22.1362 8.77814C21.9487 8.77814 21.7612 8.92814 21.7612 9.15314Z" fill="#8F8F8F"/>
<path d="M23.2612 9.15314C23.2612 9.34064 23.4487 9.52814 23.6362 9.52814C23.8612 9.52814 24.0112 9.34064 24.0112 9.15314C24.0112 8.92814 23.8612 8.77814 23.6362 8.77814C23.4487 8.77814 23.2612 8.92814 23.2612 9.15314Z" fill="#8F8F8F"/>
<path d="M24.7612 9.15314C24.7612 9.34064 24.9487 9.52814 25.1362 9.52814C25.3612 9.52814 25.5112 9.34064 25.5112 9.15314C25.5112 8.92814 25.3612 8.77814 25.1362 8.77814C24.9487 8.77814 24.7612 8.92814 24.7612 9.15314Z" fill="#8F8F8F"/>
<path d="M21.4612 12.2281C21.2362 12.4531 21.0112 13.0156 21.0112 13.4656C21.0112 14.6281 16.5487 18.9031 15.3487 18.9031C14.2237 18.9031 13.2487 17.9656 13.0612 16.6906C12.7987 14.7031 10.4737 14.7031 10.2112 16.6906C10.0237 17.9281 5.71124 22.2781 4.66124 22.2781C3.04874 22.2781 2.48624 24.1906 3.83624 25.0531C4.73624 25.6156 5.78624 24.9406 5.93624 23.7406C6.12374 22.3906 10.4362 18.1531 11.6737 18.1531C12.7987 18.1531 13.7737 19.0906 13.9612 20.3656C14.2237 22.3531 16.5487 22.3531 16.8112 20.3656C16.9987 19.1656 21.2737 14.8531 22.4362 14.7031C22.9612 14.6281 23.5612 14.2906 23.7862 13.9156C24.6112 12.6031 22.5862 11.1031 21.4612 12.2281ZM23.1112 12.9406C23.4862 13.5781 22.6237 14.2906 22.0987 13.7656C21.6487 13.3156 21.9487 12.5281 22.5112 12.5281C22.6987 12.5281 22.9612 12.7156 23.1112 12.9406ZM12.2362 16.3156C12.6112 16.9531 11.7487 17.6656 11.2237 17.1406C10.7737 16.6906 11.0737 15.9031 11.6362 15.9031C11.8237 15.9031 12.0862 16.0906 12.2362 16.3156ZM15.9862 20.0656C16.3612 20.7031 15.4987 21.4156 14.9737 20.8906C14.5237 20.4406 14.8237 19.6531 15.3862 19.6531C15.5737 19.6531 15.8362 19.8406 15.9862 20.0656ZM5.11124 23.4406C5.48624 24.0781 4.62374 24.7906 4.09874 24.2656C3.64874 23.8156 3.94874 23.0281 4.51124 23.0281C4.69874 23.0281 4.96124 23.2156 5.11124 23.4406Z" fill="#8F8F8F"/>
</svg>
