<svg width="30" height="30" viewBox="0 0 30 30" fill="none" xmlns="http://www.w3.org/2000/svg">
<path d="M3.07501 5.325C2.51251 5.8875 2.43751 21.5625 3.00001 21.1875C3.22501 21.0375 3.37501 18.6375 3.37501 15.1875C3.37501 10.95 3.48751 9.375 3.86251 9.2625C4.20001 9.1125 4.20001 9 3.82501 8.7C3.52501 8.5125 3.37501 7.8375 3.45001 7.0875L3.56251 5.8125H15H26.4375L26.55 7.0875C26.625 7.8375 26.475 8.5125 26.175 8.7C25.8 9 25.8 9.1125 26.175 9.2625C26.5125 9.375 26.625 11.2875 26.625 16.9125V24.375H16.725C10.5 24.375 6.71251 24.525 6.56251 24.75C6.41251 25.0125 9.93751 25.125 16.8375 25.125H27.375V15.45C27.375 8.4375 27.2625 5.6625 26.925 5.325C26.2875 4.6875 3.71251 4.6875 3.07501 5.325Z" fill="#4B4E52"/>
<path d="M4.27502 6.7875C3.90002 7.425 4.76252 8.1375 5.28752 7.6125C5.73752 7.1625 5.43752 6.375 4.87502 6.375C4.68752 6.375 4.42502 6.5625 4.27502 6.7875Z" fill="#4B4E52"/>
<path d="M6.52502 6.7875C6.15002 7.425 7.01252 8.1375 7.53752 7.6125C7.98752 7.1625 7.68752 6.375 7.12502 6.375C6.93752 6.375 6.67502 6.5625 6.52502 6.7875Z" fill="#4B4E52"/>
<path d="M8.77502 6.7875C8.40002 7.425 9.26252 8.1375 9.78752 7.6125C10.2375 7.1625 9.93752 6.375 9.37502 6.375C9.18752 6.375 8.92502 6.5625 8.77502 6.7875Z" fill="#4B4E52"/>
<path d="M4.875 9C4.875 9.1875 5.0625 9.375 5.25 9.375C5.475 9.375 5.625 9.1875 5.625 9C5.625 8.775 5.475 8.625 5.25 8.625C5.0625 8.625 4.875 8.775 4.875 9Z" fill="#4B4E52"/>
<path d="M6.375 9C6.375 9.1875 6.5625 9.375 6.75 9.375C6.975 9.375 7.125 9.1875 7.125 9C7.125 8.775 6.975 8.625 6.75 8.625C6.5625 8.625 6.375 8.775 6.375 9Z" fill="#4B4E52"/>
<path d="M7.875 9C7.875 9.1875 8.0625 9.375 8.25 9.375C8.475 9.375 8.625 9.1875 8.625 9C8.625 8.775 8.475 8.625 8.25 8.625C8.0625 8.625 7.875 8.775 7.875 9Z" fill="#4B4E52"/>
<path d="M9.375 9C9.375 9.1875 9.5625 9.375 9.75 9.375C9.975 9.375 10.125 9.1875 10.125 9C10.125 8.775 9.975 8.625 9.75 8.625C9.5625 8.625 9.375 8.775 9.375 9Z" fill="#4B4E52"/>
<path d="M10.875 9C10.875 9.1875 11.0625 9.375 11.25 9.375C11.475 9.375 11.625 9.1875 11.625 9C11.625 8.775 11.475 8.625 11.25 8.625C11.0625 8.625 10.875 8.775 10.875 9Z" fill="#4B4E52"/>
<path d="M12.375 9C12.375 9.1875 12.5625 9.375 12.75 9.375C12.975 9.375 13.125 9.1875 13.125 9C13.125 8.775 12.975 8.625 12.75 8.625C12.5625 8.625 12.375 8.775 12.375 9Z" fill="#4B4E52"/>
<path d="M13.875 9C13.875 9.1875 14.0625 9.375 14.25 9.375C14.475 9.375 14.625 9.1875 14.625 9C14.625 8.775 14.475 8.625 14.25 8.625C14.0625 8.625 13.875 8.775 13.875 9Z" fill="#4B4E52"/>
<path d="M15.375 9C15.375 9.1875 15.5625 9.375 15.75 9.375C15.975 9.375 16.125 9.1875 16.125 9C16.125 8.775 15.975 8.625 15.75 8.625C15.5625 8.625 15.375 8.775 15.375 9Z" fill="#4B4E52"/>
<path d="M16.875 9C16.875 9.1875 17.0625 9.375 17.25 9.375C17.475 9.375 17.625 9.1875 17.625 9C17.625 8.775 17.475 8.625 17.25 8.625C17.0625 8.625 16.875 8.775 16.875 9Z" fill="#4B4E52"/>
<path d="M18.375 9C18.375 9.1875 18.5625 9.375 18.75 9.375C18.975 9.375 19.125 9.1875 19.125 9C19.125 8.775 18.975 8.625 18.75 8.625C18.5625 8.625 18.375 8.775 18.375 9Z" fill="#4B4E52"/>
<path d="M19.875 9C19.875 9.1875 20.0625 9.375 20.25 9.375C20.475 9.375 20.625 9.1875 20.625 9C20.625 8.775 20.475 8.625 20.25 8.625C20.0625 8.625 19.875 8.775 19.875 9Z" fill="#4B4E52"/>
<path d="M21.375 9C21.375 9.1875 21.5625 9.375 21.75 9.375C21.975 9.375 22.125 9.1875 22.125 9C22.125 8.775 21.975 8.625 21.75 8.625C21.5625 8.625 21.375 8.775 21.375 9Z" fill="#4B4E52"/>
<path d="M22.875 9C22.875 9.1875 23.0625 9.375 23.25 9.375C23.475 9.375 23.625 9.1875 23.625 9C23.625 8.775 23.475 8.625 23.25 8.625C23.0625 8.625 22.875 8.775 22.875 9Z" fill="#4B4E52"/>
<path d="M24.375 9C24.375 9.1875 24.5625 9.375 24.75 9.375C24.975 9.375 25.125 9.1875 25.125 9C25.125 8.775 24.975 8.625 24.75 8.625C24.5625 8.625 24.375 8.775 24.375 9Z" fill="#4B4E52"/>
<path d="M21.075 12.075C20.85 12.3 20.625 12.8625 20.625 13.3125C20.625 14.475 16.1625 18.75 14.9625 18.75C13.8375 18.75 12.8625 17.8125 12.675 16.5375C12.4125 14.55 10.0875 14.55 9.82503 16.5375C9.63753 17.775 5.32503 22.125 4.27503 22.125C2.66253 22.125 2.10003 24.0375 3.45003 24.9C4.35003 25.4625 5.40003 24.7875 5.55003 23.5875C5.73753 22.2375 10.05 18 11.2875 18C12.4125 18 13.3875 18.9375 13.575 20.2125C13.8375 22.2 16.1625 22.2 16.425 20.2125C16.6125 19.0125 20.8875 14.7 22.05 14.55C22.575 14.475 23.175 14.1375 23.4 13.7625C24.225 12.45 22.2 10.95 21.075 12.075ZM22.725 12.7875C23.1 13.425 22.2375 14.1375 21.7125 13.6125C21.2625 13.1625 21.5625 12.375 22.125 12.375C22.3125 12.375 22.575 12.5625 22.725 12.7875ZM11.85 16.1625C12.225 16.8 11.3625 17.5125 10.8375 16.9875C10.3875 16.5375 10.6875 15.75 11.25 15.75C11.4375 15.75 11.7 15.9375 11.85 16.1625ZM15.6 19.9125C15.975 20.55 15.1125 21.2625 14.5875 20.7375C14.1375 20.2875 14.4375 19.5 15 19.5C15.1875 19.5 15.45 19.6875 15.6 19.9125ZM4.72503 23.2875C5.10003 23.925 4.23753 24.6375 3.71253 24.1125C3.26253 23.6625 3.56253 22.875 4.12503 22.875C4.31253 22.875 4.57503 23.0625 4.72503 23.2875Z" fill="#4B4E52"/>
</svg>
